<?xml version="1.0" encoding="UTF-8" standalone="no"?>
<!DOCTYPE svg PUBLIC "-//W3C//DTD SVG 1.1//EN" "http://www.w3.org/Graphics/SVG/1.1/DTD/svg11.dtd">
<svg width="100%" height="100%" viewBox="0 0 263 248" version="1.1" xmlns="http://www.w3.org/2000/svg" xmlns:xlink="http://www.w3.org/1999/xlink" xml:space="preserve" xmlns:serif="http://www.serif.com/" style="fill-rule:evenodd;clip-rule:evenodd;stroke-linejoin:round;stroke-miterlimit:2;">
    <g transform="matrix(1,0,0,1,73.4058,48.6202)">
        <g id="Layer-1" serif:id="Layer 1">
            <path d="M0,150.209C-6.287,143.923 -11.594,136.73 -15.746,128.868C-22.02,118.311 -29.561,90.197 -22.593,64.15C-21.115,57.449 -18.868,50.94 -15.896,44.754C-13.122,39.582 -11.115,35.932 -9.864,33.79C-8.054,30.773 -7.209,29.265 -7.45,28.933C-7.692,28.602 -8.566,29.129 -10,30.2C-12.631,32.414 -14.977,34.947 -16.982,37.741C-20.732,42.505 -23.855,47.731 -26.273,53.291C-29.825,61.361 -32.1,69.935 -33.015,78.705C-31.819,57.744 -22.981,37.95 -8.174,23.066C-2.286,17.104 4.485,12.084 11.9,8.18C23.856,1.863 37.271,-1.181 50.782,-0.643C63.196,-0.156 75.283,3.477 85.909,9.915C90.787,12.881 95.289,16.426 99.316,20.472C103.365,24.533 106.877,29.095 109.769,34.046C115.015,42.843 118.081,52.766 118.712,62.989C119.355,72.421 117.764,81.873 114.067,90.574C110.879,98.239 105.996,105.082 99.784,110.589C94.424,115.369 88.148,119.013 81.339,121.297C75.674,123.213 69.715,124.106 63.738,123.937C58.788,123.774 53.887,122.906 49.184,121.357C43.108,119.171 37.379,116.123 32.17,112.308C30.969,111.404 29.715,110.573 28.415,109.819C27.646,109.532 27.178,109.684 27.042,110.287C27.141,111.472 27.474,112.625 28.023,113.681C29.146,115.833 30.501,117.856 32.065,119.713C34.539,122.58 37.372,125.114 40.496,127.254C44.592,130.059 49.072,132.253 53.799,133.77C59.753,135.715 65.998,136.623 72.259,136.454C79.789,136.339 87.229,134.804 94.189,131.93C102.381,128.579 109.802,123.591 115.998,117.27C123.279,109.99 128.866,101.194 132.362,91.509C137.535,79.037 138.968,59.038 137.927,47.198C136.907,34.553 132.979,22.314 126.45,11.438C122.782,5.248 118.365,-0.466 113.298,-5.575C108.476,-10.406 103.123,-14.676 97.341,-18.304C108.833,-11.546 118.691,-2.333 126.208,8.678C132.715,18.167 137.325,28.824 139.782,40.064C143.296,54.648 142.603,66.021 141.185,77.166C140.431,84.18 137.852,91.977 135.393,98.779C132.965,104.676 131.186,108.748 130.084,110.936C129.11,112.694 128.283,114.53 127.611,116.425C127.557,116.587 127.557,116.762 127.611,116.923C127.807,117.119 128.456,116.727 129.496,115.731C131.801,113.545 133.827,111.084 135.529,108.401C138.831,103.625 141.517,98.451 143.522,93.003C146.557,85.004 148.333,76.584 148.786,68.042C148.53,83.15 144.374,97.937 136.72,110.966C133.127,117.107 128.774,122.772 123.765,127.827C118.616,133.007 112.786,137.462 106.436,141.069C97.282,146.317 87.158,149.652 76.678,150.873C61.129,152.923 45.338,149.807 31.733,142.005C26.151,138.881 21.03,134.998 16.515,130.467C12.86,126.804 9.641,122.73 6.923,118.325C1.349,109.527 -1.981,99.496 -2.775,89.111C-3.607,79.556 -2.133,69.94 1.523,61.074C4.697,53.241 9.637,46.247 15.957,40.637C21.419,35.725 27.852,32.015 34.84,29.748C38.411,28.609 42.1,27.881 45.835,27.576C44.628,27.727 43.407,27.877 42.215,28.119C34.014,29.776 26.363,33.475 19.969,38.873C23.871,35.848 28.215,33.442 32.849,31.739C36.053,30.526 39.398,29.726 42.804,29.355C44.74,29.061 46.706,29.005 48.655,29.189C49.681,29.295 50.164,29.461 50.164,29.657C50.164,29.853 49.213,30.155 47.238,30.592C45.896,30.939 43.633,31.527 40.436,32.432C36.76,33.67 33.234,35.314 29.923,37.334C25.607,39.961 21.737,43.261 18.461,47.107C14.445,51.8 11.414,57.252 9.547,63.14C8.085,67.734 7.342,72.526 7.345,77.347C7.351,79.607 7.502,81.864 7.798,84.104C7.647,82.324 7.542,80.56 7.542,78.81C7.518,73.046 8.604,67.332 10.739,61.979C15.661,49.44 26.07,39.859 38.973,35.992C42.886,34.808 46.951,34.204 51.039,34.197C52.656,34.205 54.272,34.295 55.88,34.468C60.749,35.045 65.463,36.544 69.771,38.888C73.391,40.854 76.622,43.466 79.303,46.595C81.492,49.142 83.24,52.038 84.476,55.161C85.425,57.626 86.004,60.219 86.195,62.853C86.195,63.426 86.271,64 86.271,64.558C86.273,66.569 85.963,68.569 85.351,70.485C84.792,72.204 84.189,73.139 83.571,73.411C83.299,73.531 83.073,73.305 82.938,72.702C82.938,72.43 82.771,71.631 82.651,70.289L82.651,70.093C82.519,68.538 82.297,66.992 81.987,65.462C81.541,63.376 80.847,61.351 79.921,59.43C78.713,56.845 77.11,54.463 75.17,52.371C72.823,49.874 70.037,47.828 66.95,46.338C63.212,44.554 59.157,43.528 55.02,43.322C50.24,43.011 45.452,43.779 41.009,45.569C27.88,50.943 19.287,63.704 19.245,77.89C19.241,81.369 19.75,84.83 20.753,88.161C23.163,96.5 28.285,103.798 35.308,108.899C40.065,112.466 45.469,115.078 51.22,116.591C55.213,117.627 59.326,118.134 63.451,118.1C67.481,118.111 71.498,117.63 75.411,116.667C83.64,114.642 91.228,110.581 97.477,104.857C93.849,107.952 89.783,110.493 85.411,112.398C82.409,113.696 79.266,114.638 76.045,115.203C74.275,115.573 72.466,115.721 70.661,115.641C69.831,115.641 69.409,115.551 69.409,115.369C69.409,115.188 69.409,115.249 69.574,115.174C70.603,114.712 71.667,114.333 72.757,114.042C74.064,113.6 76.396,112.73 79.755,111.433C83.402,109.83 86.85,107.805 90.026,105.4C94.11,102.253 97.673,98.481 100.583,94.225C104.071,89.017 106.485,83.167 107.688,77.016C108.252,74.078 108.541,71.093 108.547,68.102C108.535,63.873 107.967,59.664 106.858,55.584C107.737,59.188 108.183,62.884 108.185,66.594C108.191,70.494 107.684,74.378 106.677,78.146C103.249,91.303 93.969,102.156 81.504,107.587C76.17,109.87 70.414,111.001 64.612,110.905C59.6,110.945 54.628,109.997 49.982,108.115C46.051,106.558 42.441,104.288 39.334,101.418C36.764,99.089 34.606,96.34 32.955,93.289C31.684,90.918 30.754,88.379 30.195,85.748C29.8,83.727 29.679,81.663 29.833,79.609C29.927,78.3 30.186,77.008 30.602,75.764C30.804,75.141 31.139,74.57 31.583,74.089C31.884,73.923 32.11,74.089 32.306,74.451C32.502,74.813 32.593,75.567 32.834,76.834C33.368,80.327 34.441,83.716 36.017,86.879C38.883,92.292 43.429,96.626 48.972,99.231C52.646,101.003 56.634,102.028 60.706,102.248C65.399,102.521 70.096,101.781 74.476,100.076C79.399,98.201 83.812,95.194 87.356,91.298C91.182,87.2 93.938,82.222 95.38,76.804C97.009,70.758 97.009,64.389 95.38,58.344C93.832,52.478 90.934,47.055 86.919,42.507C88.05,43.442 88.789,44.016 89.136,44.242C90.071,44.815 90.645,44.86 90.825,44.362C91.263,43.216 90.825,41.21 89.227,38.33C87.474,35.06 85.248,32.066 82.621,29.446C81.912,28.737 81.112,27.938 80.358,27.334C76.735,24.156 72.671,21.52 68.292,19.507C62.769,16.983 56.869,15.383 50.827,14.771C43.484,14.045 36.071,14.679 28.958,16.641C20.563,18.887 12.709,22.806 5.867,28.164C3.641,29.944 1.516,31.847 -0.498,33.865C-5.524,38.945 -9.759,44.751 -13.061,51.089C-18.302,61.238 -21.208,72.431 -21.567,83.848C-24.222,118.325 -5.49,144.177 2.127,151.884C4.429,154.21 6.856,156.41 9.396,158.475C6.09,155.924 2.952,153.163 0,150.209M189.373,89.88C189.373,89.88 176.085,124.887 163.733,139.245C152.528,152.443 138.483,162.936 122.649,169.937C108.668,176.21 93.51,179.43 78.187,179.379C64.884,179.457 51.699,176.894 39.395,171.837C31.389,168.535 23.874,164.15 17.058,158.807C23.063,162.611 29.472,165.737 36.167,168.127C45.536,171.419 55.352,173.266 65.276,173.602C90.053,174.574 114.335,166.488 133.583,150.858C125.225,157.034 115.96,161.878 106.119,165.216C99.333,167.546 92.278,169.006 85.124,169.56C81.078,170.061 76.984,170.061 72.938,169.56C70.841,169.198 69.771,168.821 69.771,168.398C69.771,167.977 71.882,167.418 75.939,166.604C78.82,166.001 83.601,164.839 90.328,163.105C98.101,160.725 105.571,157.45 112.589,153.347C140.808,138.687 159.103,109.864 163.175,96.109C166.628,86.294 168.576,76.012 168.951,65.613C169.138,60.728 168.992,55.834 168.514,50.968C168.786,54.788 168.842,58.62 168.68,62.446C168.197,75.1 160.882,111.765 128.833,136.847C118.608,145.605 106.563,151.977 93.57,155.503C85.389,157.706 76.926,158.677 68.458,158.384C65.08,158.242 61.712,157.92 58.368,157.419C48.206,155.811 38.464,152.196 29.712,146.786C22.28,142.232 15.747,136.354 10.437,129.441C6.101,123.757 2.718,117.404 0.422,110.634C0.015,109.396 -0.332,108.16 -0.664,106.924C0.219,109.277 1.226,111.584 2.353,113.831C5.733,120.396 10.046,126.437 15.158,131.764C21.339,138.227 28.628,143.528 36.68,147.419C46.395,152.219 56.977,155.009 67.795,155.624C80.237,156.373 92.691,154.359 104.264,149.727C117.396,144.581 129.131,136.411 138.515,125.882C148.626,114.598 155.87,101.044 159.63,86.366C161.766,78.162 162.845,69.718 162.843,61.239C162.831,52.787 161.777,44.368 159.706,36.173C155.151,18.292 146.096,1.875 133.402,-11.517C119.504,-26.3 101.974,-37.184 82.56,-43.084C70.498,-46.796 57.943,-48.662 45.322,-48.62C13.894,-48.682 -16.49,-37.343 -40.194,-16.706C-29.887,-24.887 -18.38,-31.429 -6.078,-36.101C2.417,-39.371 11.29,-41.56 20.331,-42.617C25.503,-43.388 30.748,-43.544 35.956,-43.084C38.626,-42.752 39.968,-42.3 39.968,-41.757C39.968,-41.214 37.419,-40.43 32.261,-39.238C28.651,-38.343 22.619,-36.649 14.163,-34.156C4.448,-30.817 -4.853,-26.379 -13.559,-20.929C-25.032,-13.705 -35.297,-4.722 -43.979,5.691C-54.627,18.529 -62.638,33.341 -67.553,49.279C-71.479,61.823 -73.453,74.896 -73.405,88.041C-73.411,94.2 -72.993,100.354 -72.153,106.456C-72.678,101.652 -72.945,96.824 -72.953,91.992C-73.002,76.312 -70.117,60.761 -64.446,46.142C-57.77,28.78 -47.148,13.208 -33.422,0.654C-20.862,-10.901 -5.884,-19.511 10.422,-24.548C20.682,-27.716 31.357,-29.333 42.095,-29.344C46.388,-29.341 50.677,-29.105 54.945,-28.636C67.919,-27.093 80.458,-22.992 91.836,-16.57C101.464,-11.166 110.033,-4.063 117.129,4.395C122.883,11.36 127.468,19.215 130.703,27.651C131.631,30.121 132.427,32.638 133.086,35.192C127.944,21.043 119.087,8.54 107.446,-1.005C97.903,-9.075 86.834,-15.143 74.898,-18.847C66.68,-21.46 58.147,-22.957 49.53,-23.296C41.11,-23.601 32.685,-22.856 24.448,-21.08C7.035,-17.332 -9.119,-9.161 -22.457,2.645C-14.679,-3.73 -5.958,-8.859 3.394,-12.558C9.748,-15.153 16.4,-16.952 23.197,-17.912C26.921,-18.547 30.709,-18.73 34.478,-18.455C36.183,-18.35 37.057,-18.108 37.042,-17.761C36.966,-17.58 36.833,-17.426 36.665,-17.324C34.481,-16.415 32.227,-15.689 29.923,-15.152C27.133,-14.368 22.156,-12.664 15.083,-10.069C7.194,-6.796 -1.644,-2.845 -8.325,2.087C-19.124,9.628 -29.561,18.119 -39.364,32.719C-50.88,49.108 -57.412,68.477 -58.172,88.493C-58.524,97.61 -57.698,106.735 -55.713,115.641C-57.233,107.794 -57.851,99.799 -57.554,91.811C-57.23,83.391 -55.847,75.045 -53.436,66.971C-49.293,52.676 -41.866,39.547 -31.748,28.632C-22.321,18.346 -3.831,3.701 11.176,-1.729C22.369,-6.326 34.425,-8.441 46.514,-7.928C56.998,-7.602 67.308,-5.166 76.829,-0.764C80.579,0.947 84.181,2.965 87.598,5.269C86.512,4.666 85.456,4.002 84.34,3.444C74.478,-1.523 63.694,-4.394 52.667,-4.987C39.995,-5.771 27.31,-3.673 15.565,1.152C2.295,6.516 -9.489,14.995 -18.792,25.872C-28.939,37.501 -36.039,51.467 -39.455,66.518C-43.423,83.25 -42.961,100.727 -38.113,117.225C-31.828,139.744 -18.274,159.554 0.437,173.572C12.984,183.295 27.339,190.427 42.668,194.551C53.261,197.435 64.191,198.891 75.17,198.88C85.852,198.861 96.491,197.52 106.843,194.883C128.738,189.345 148.842,178.272 165.226,162.728C155.63,171.164 144.795,178.076 133.101,183.225C125.151,186.785 116.8,189.373 108.23,190.932C103.536,191.878 98.749,192.277 93.962,192.123C91.791,192.048 90.674,191.821 90.674,191.414C90.725,191.159 90.877,190.936 91.097,190.796C93.838,189.534 96.672,188.485 99.573,187.658C103.103,186.527 109.256,184.175 118.124,180.57C127.807,176.187 136.922,170.646 145.272,164.07C156.147,155.463 165.577,145.172 173.205,133.589C182.51,119.23 189.373,89.88 189.373,89.88" style="fill:rgb(239,71,35);fill-rule:nonzero;"/>
        </g>
    </g>
</svg>
